<svg width="1126" height="190" viewBox="0 0 1126 190" fill="none" xmlns="http://www.w3.org/2000/svg">
    <path
        d="M160.333 26.147C159.361 26.776 158.617 27.2334 157.817 27.6909C120.02 49.477 82.2802 71.3204 44.4832 93.1065C43.5683 93.6211 42.539 94.0214 41.7385 95.1079C45.1122 97.2808 48.4287 99.0534 51.7453 100.94C55.0618 102.885 58.3211 104.772 61.6377 106.659C64.9542 108.545 68.2135 110.49 71.5301 112.377C74.8466 114.264 78.1059 116.208 81.4224 118.095C84.739 119.982 87.9983 121.926 91.3148 123.813C94.6314 125.7 97.8907 127.644 101.207 129.531C104.409 131.418 107.669 133.248 110.871 135.135C114.187 137.022 117.447 138.909 120.763 140.853C124.08 142.74 127.339 144.684 130.656 146.571C133.972 148.458 137.232 150.402 140.548 152.289C143.865 154.176 147.181 156.063 150.44 158.007C153.7 159.894 157.016 161.667 160.219 163.783C129.626 194.604 72.2162 201.866 31.7889 165.841C-9.153 129.302 -10.7541 66.0597 28.1865 27.5193C66.9555 -10.8494 126.596 -7.01826 160.333 26.147Z"
        fill="#F6F6F6" />
    <path
        d="M127.739 94.9362C146.323 84.1861 164.449 73.7219 182.576 63.2577C183.033 62.9718 183.548 62.8003 184.005 62.5715C191.439 79.4972 192.297 107.402 184.177 127.244C183.262 127.301 182.576 126.615 181.832 126.215C172.226 120.725 162.677 115.178 153.127 109.632C145.694 105.343 138.203 101.055 130.769 96.7089C129.912 96.2514 129.054 95.7368 127.739 94.9362Z"
        fill="#F6C360" />
    <g filter="url(#filter0_d_35_7455)">
        <path
            d="M365.735 85.1016H342.404C341.978 82.0831 341.108 79.402 339.794 77.0582C338.48 74.679 336.793 72.6548 334.734 70.9858C332.674 69.3168 330.295 68.0383 327.596 67.1506C324.933 66.2628 322.038 65.8189 318.913 65.8189C313.267 65.8189 308.349 67.2216 304.158 70.027C299.968 72.7969 296.719 76.8452 294.411 82.1719C292.102 87.4631 290.948 93.8906 290.948 101.455C290.948 109.232 292.102 115.766 294.411 121.057C296.754 126.348 300.021 130.343 304.212 133.042C308.402 135.741 313.249 137.09 318.754 137.09C321.843 137.09 324.702 136.682 327.33 135.865C329.993 135.048 332.354 133.859 334.414 132.296C336.474 130.698 338.178 128.763 339.528 126.49C340.913 124.217 341.871 121.625 342.404 118.713L365.735 118.82C365.131 123.827 363.622 128.656 361.207 133.308C358.828 137.925 355.614 142.062 351.566 145.719C347.553 149.342 342.759 152.218 337.184 154.349C331.644 156.444 325.376 157.491 318.381 157.491C308.651 157.491 299.95 155.29 292.28 150.886C284.645 146.483 278.608 140.109 274.169 131.763C269.766 123.418 267.564 113.315 267.564 101.455C267.564 89.5582 269.801 79.4375 274.276 71.0923C278.75 62.7472 284.822 56.3906 292.493 52.0227C300.163 47.6193 308.793 45.4176 318.381 45.4176C324.702 45.4176 330.561 46.3054 335.959 48.081C341.392 49.8565 346.204 52.4489 350.394 55.8579C354.585 59.2315 357.994 63.3686 360.621 68.2692C363.285 73.1697 364.989 78.7805 365.735 85.1016ZM405.179 157.545C399.959 157.545 395.307 156.639 391.223 154.828C387.14 152.982 383.908 150.265 381.529 146.678C379.185 143.056 378.013 138.546 378.013 133.148C378.013 128.603 378.848 124.786 380.517 121.696C382.186 118.607 384.458 116.121 387.335 114.239C390.211 112.357 393.478 110.936 397.136 109.977C400.829 109.018 404.7 108.344 408.748 107.953C413.507 107.456 417.342 106.994 420.254 106.568C423.166 106.107 425.279 105.432 426.593 104.544C427.907 103.656 428.564 102.342 428.564 100.602V100.283C428.564 96.9091 427.498 94.299 425.368 92.4524C423.272 90.6058 420.289 89.6825 416.419 89.6825C412.335 89.6825 409.086 90.5881 406.671 92.3991C404.256 94.1747 402.658 96.4119 401.877 99.1108L380.89 97.4062C381.955 92.4347 384.05 88.1378 387.175 84.5156C390.3 80.858 394.331 78.0526 399.267 76.0994C404.238 74.1108 409.991 73.1165 416.525 73.1165C421.071 73.1165 425.421 73.6491 429.576 74.7145C433.766 75.7798 437.477 77.4311 440.708 79.6683C443.975 81.9055 446.55 84.782 448.432 88.2976C450.314 91.7777 451.255 95.9503 451.255 100.815V156H429.735V144.654H429.096C427.782 147.211 426.025 149.466 423.823 151.419C421.621 153.337 418.975 154.846 415.886 155.947C412.797 157.012 409.228 157.545 405.179 157.545ZM411.678 141.884C415.016 141.884 417.963 141.227 420.52 139.913C423.077 138.564 425.083 136.753 426.539 134.48C427.995 132.207 428.723 129.633 428.723 126.756V118.074C428.013 118.536 427.037 118.962 425.794 119.352C424.586 119.707 423.219 120.045 421.692 120.364C420.165 120.648 418.638 120.915 417.111 121.163C415.584 121.376 414.199 121.572 412.956 121.749C410.293 122.14 407.967 122.761 405.978 123.614C403.99 124.466 402.445 125.62 401.344 127.076C400.243 128.496 399.693 130.272 399.693 132.403C399.693 135.492 400.811 137.854 403.049 139.487C405.321 141.085 408.198 141.884 411.678 141.884ZM468.86 156V74.1818H490.859V88.4574H491.712C493.203 83.3793 495.707 79.544 499.222 76.9517C502.738 74.3239 506.786 73.0099 511.367 73.0099C512.504 73.0099 513.729 73.081 515.043 73.223C516.357 73.3651 517.511 73.5604 518.505 73.8089V93.9439C517.44 93.6243 515.966 93.3402 514.084 93.0916C512.202 92.843 510.479 92.7188 508.917 92.7188C505.579 92.7188 502.596 93.4467 499.968 94.9027C497.376 96.3232 495.316 98.3118 493.789 100.869C492.298 103.425 491.552 106.373 491.552 109.711V156H468.86ZM563.715 157.598C555.299 157.598 548.055 155.893 541.982 152.484C535.945 149.04 531.294 144.175 528.026 137.889C524.759 131.568 523.126 124.093 523.126 115.464C523.126 107.048 524.759 99.6612 528.026 93.3047C531.294 86.9482 535.892 81.9943 541.823 78.4432C547.789 74.892 554.784 73.1165 562.81 73.1165C568.208 73.1165 573.232 73.9865 577.884 75.7266C582.572 77.4311 586.656 80.0057 590.136 83.4503C593.651 86.8949 596.386 91.2273 598.339 96.4474C600.292 101.632 601.269 107.705 601.269 114.665V120.897H532.181V106.835H579.909C579.909 103.567 579.198 100.673 577.778 98.152C576.357 95.6307 574.387 93.6598 571.865 92.2393C569.379 90.7834 566.485 90.0554 563.183 90.0554C559.738 90.0554 556.684 90.8544 554.021 92.4524C551.393 94.0149 549.333 96.1278 547.842 98.7912C546.35 101.419 545.587 104.349 545.551 107.58V120.95C545.551 124.999 546.297 128.496 547.789 131.444C549.316 134.391 551.464 136.664 554.234 138.262C557.004 139.86 560.289 140.659 564.088 140.659C566.61 140.659 568.918 140.304 571.013 139.594C573.108 138.884 574.901 137.818 576.393 136.398C577.884 134.977 579.021 133.237 579.802 131.178L600.789 132.562C599.724 137.605 597.54 142.009 594.237 145.773C590.97 149.501 586.744 152.413 581.56 154.509C576.411 156.568 570.463 157.598 563.715 157.598ZM653.364 157.598C644.948 157.598 637.703 155.893 631.631 152.484C625.594 149.04 620.942 144.175 617.675 137.889C614.408 131.568 612.774 124.093 612.774 115.464C612.774 107.048 614.408 99.6612 617.675 93.3047C620.942 86.9482 625.541 81.9943 631.471 78.4432C637.437 74.892 644.433 73.1165 652.458 73.1165C657.856 73.1165 662.881 73.9865 667.533 75.7266C672.22 77.4311 676.304 80.0057 679.784 83.4503C683.3 86.8949 686.034 91.2273 687.987 96.4474C689.941 101.632 690.917 107.705 690.917 114.665V120.897H621.83V106.835H669.557C669.557 103.567 668.847 100.673 667.426 98.152C666.006 95.6307 664.035 93.6598 661.514 92.2393C659.028 90.7834 656.134 90.0554 652.831 90.0554C649.387 90.0554 646.333 90.8544 643.669 92.4524C641.041 94.0149 638.982 96.1278 637.49 98.7912C635.999 101.419 635.235 104.349 635.2 107.58V120.95C635.2 124.999 635.945 128.496 637.437 131.444C638.964 134.391 641.112 136.664 643.882 138.262C646.652 139.86 649.937 140.659 653.737 140.659C656.258 140.659 658.566 140.304 660.661 139.594C662.757 138.884 664.55 137.818 666.041 136.398C667.533 134.977 668.669 133.237 669.45 131.178L690.438 132.562C689.372 137.605 687.188 142.009 683.886 145.773C680.619 149.501 676.393 152.413 671.208 154.509C666.059 156.568 660.111 157.598 653.364 157.598ZM705.725 156V74.1818H727.725V88.4574H728.577C730.068 83.3793 732.572 79.544 736.088 76.9517C739.603 74.3239 743.651 73.0099 748.232 73.0099C749.369 73.0099 750.594 73.081 751.908 73.223C753.222 73.3651 754.376 73.5604 755.37 73.8089V93.9439C754.305 93.6243 752.831 93.3402 750.949 93.0916C749.067 92.843 747.345 92.7188 745.782 92.7188C742.444 92.7188 739.461 93.4467 736.833 94.9027C734.241 96.3232 732.181 98.3118 730.654 100.869C729.163 103.425 728.417 106.373 728.417 109.711V156H705.725Z"
            fill="#F6F6F6" />
        <path
            d="M858.775 46.9091V156H838.853L791.392 87.3388H790.593V156H767.528V46.9091H787.77L834.858 115.517H835.817V46.9091H858.775ZM900.736 157.545C895.516 157.545 890.864 156.639 886.78 154.828C882.696 152.982 879.465 150.265 877.085 146.678C874.742 143.056 873.57 138.546 873.57 133.148C873.57 128.603 874.404 124.786 876.073 121.696C877.742 118.607 880.015 116.121 882.892 114.239C885.768 112.357 889.035 110.936 892.693 109.977C896.386 109.018 900.257 108.344 904.305 107.953C909.063 107.456 912.899 106.994 915.811 106.568C918.722 106.107 920.835 105.432 922.149 104.544C923.463 103.656 924.12 102.342 924.12 100.602V100.283C924.12 96.9091 923.055 94.299 920.924 92.4524C918.829 90.6058 915.846 89.6825 911.975 89.6825C907.892 89.6825 904.642 90.5881 902.227 92.3991C899.813 94.1747 898.215 96.4119 897.433 99.1108L876.446 97.4062C877.512 92.4347 879.607 88.1378 882.732 84.5156C885.857 80.858 889.887 78.0526 894.823 76.0994C899.795 74.1108 905.548 73.1165 912.082 73.1165C916.627 73.1165 920.977 73.6491 925.132 74.7145C929.323 75.7798 933.034 77.4311 936.265 79.6683C939.532 81.9055 942.107 84.782 943.989 88.2976C945.871 91.7777 946.812 95.9503 946.812 100.815V156H925.292V144.654H924.653C923.339 147.211 921.581 149.466 919.379 151.419C917.178 153.337 914.532 154.846 911.443 155.947C908.353 157.012 904.784 157.545 900.736 157.545ZM907.235 141.884C910.573 141.884 913.52 141.227 916.077 139.913C918.634 138.564 920.64 136.753 922.096 134.48C923.552 132.207 924.28 129.633 924.28 126.756V118.074C923.57 118.536 922.593 118.962 921.35 119.352C920.143 119.707 918.776 120.045 917.249 120.364C915.722 120.648 914.195 120.915 912.668 121.163C911.141 121.376 909.756 121.572 908.513 121.749C905.85 122.14 903.524 122.761 901.535 123.614C899.546 124.466 898.002 125.62 896.901 127.076C895.8 128.496 895.249 130.272 895.249 132.403C895.249 135.492 896.368 137.854 898.605 139.487C900.878 141.085 903.754 141.884 907.235 141.884ZM1037.77 74.1818L1009.16 156H983.593L954.988 74.1818H978.959L995.951 132.722H996.803L1013.74 74.1818H1037.77ZM1070.51 157.545C1065.29 157.545 1060.64 156.639 1056.56 154.828C1052.47 152.982 1049.24 150.265 1046.86 146.678C1044.52 143.056 1043.35 138.546 1043.35 133.148C1043.35 128.603 1044.18 124.786 1045.85 121.696C1047.52 118.607 1049.79 116.121 1052.67 114.239C1055.54 112.357 1058.81 110.936 1062.47 109.977C1066.16 109.018 1070.03 108.344 1074.08 107.953C1078.84 107.456 1082.67 106.994 1085.59 106.568C1088.5 106.107 1090.61 105.432 1091.92 104.544C1093.24 103.656 1093.9 102.342 1093.9 100.602V100.283C1093.9 96.9091 1092.83 94.299 1090.7 92.4524C1088.6 90.6058 1085.62 89.6825 1081.75 89.6825C1077.67 89.6825 1074.42 90.5881 1072 92.3991C1069.59 94.1747 1067.99 96.4119 1067.21 99.1108L1046.22 97.4062C1047.29 92.4347 1049.38 88.1378 1052.51 84.5156C1055.63 80.858 1059.66 78.0526 1064.6 76.0994C1069.57 74.1108 1075.32 73.1165 1081.86 73.1165C1086.4 73.1165 1090.75 73.6491 1094.91 74.7145C1099.1 75.7798 1102.81 77.4311 1106.04 79.6683C1109.31 81.9055 1111.88 84.782 1113.76 88.2976C1115.65 91.7777 1116.59 95.9503 1116.59 100.815V156H1095.07V144.654H1094.43C1093.11 147.211 1091.36 149.466 1089.15 151.419C1086.95 153.337 1084.31 154.846 1081.22 155.947C1078.13 157.012 1074.56 157.545 1070.51 157.545ZM1077.01 141.884C1080.35 141.884 1083.3 141.227 1085.85 139.913C1088.41 138.564 1090.42 136.753 1091.87 134.48C1093.33 132.207 1094.06 129.633 1094.06 126.756V118.074C1093.35 118.536 1092.37 118.962 1091.13 119.352C1089.92 119.707 1088.55 120.045 1087.02 120.364C1085.5 120.648 1083.97 120.915 1082.44 121.163C1080.92 121.376 1079.53 121.572 1078.29 121.749C1075.63 122.14 1073.3 122.761 1071.31 123.614C1069.32 124.466 1067.78 125.62 1066.68 127.076C1065.58 128.496 1065.02 130.272 1065.02 132.403C1065.02 135.492 1066.14 137.854 1068.38 139.487C1070.65 141.085 1073.53 141.884 1077.01 141.884Z"
            fill="#F6C360" />
    </g>
    <defs>
        <filter id="filter0_d_35_7455" x="263.564" y="45.4177" width="857.023" height="120.18"
            filterUnits="userSpaceOnUse" color-interpolation-filters="sRGB">
            <feFlood flood-opacity="0" result="BackgroundImageFix" />
            <feColorMatrix in="SourceAlpha" type="matrix" values="0 0 0 0 0 0 0 0 0 0 0 0 0 0 0 0 0 0 127 0"
                result="hardAlpha" />
            <feOffset dy="4" />
            <feGaussianBlur stdDeviation="2" />
            <feComposite in2="hardAlpha" operator="out" />
            <feColorMatrix type="matrix" values="0 0 0 0 0 0 0 0 0 0 0 0 0 0 0 0 0 0 0.25 0" />
            <feBlend mode="normal" in2="BackgroundImageFix" result="effect1_dropShadow_35_7455" />
            <feBlend mode="normal" in="SourceGraphic" in2="effect1_dropShadow_35_7455" result="shape" />
        </filter>
    </defs>
</svg>