<svg width="190" height="190" viewBox="0 0 190 190" fill="none" xmlns="http://www.w3.org/2000/svg">
    <path
        d="M160.333 26.147C159.361 26.776 158.617 27.2334 157.817 27.6909C120.02 49.477 82.2802 71.3204 44.4832 93.1065C43.5683 93.6211 42.539 94.0214 41.7385 95.1079C45.1122 97.2808 48.4287 99.0534 51.7453 100.94C55.0618 102.885 58.3211 104.772 61.6377 106.659C64.9542 108.545 68.2135 110.49 71.5301 112.377C74.8466 114.264 78.1059 116.208 81.4224 118.095C84.739 119.982 87.9983 121.926 91.3148 123.813C94.6314 125.7 97.8907 127.644 101.207 129.531C104.409 131.418 107.669 133.248 110.871 135.135C114.187 137.022 117.447 138.909 120.763 140.853C124.08 142.74 127.339 144.684 130.656 146.571C133.972 148.458 137.232 150.402 140.548 152.289C143.865 154.176 147.181 156.063 150.44 158.007C153.7 159.894 157.016 161.667 160.219 163.783C129.626 194.604 72.2162 201.866 31.7889 165.841C-9.153 129.302 -10.7541 66.0597 28.1865 27.5193C66.9555 -10.8494 126.596 -7.01826 160.333 26.147Z"
        fill="#F6F6F6" />
    <path
        d="M127.739 94.9362C146.323 84.1861 164.449 73.7219 182.576 63.2577C183.033 62.9718 183.548 62.8003 184.005 62.5715C191.439 79.4972 192.297 107.402 184.177 127.244C183.262 127.301 182.576 126.615 181.832 126.215C172.226 120.725 162.677 115.178 153.127 109.632C145.694 105.343 138.203 101.055 130.769 96.7089C129.912 96.2514 129.054 95.7368 127.739 94.9362Z"
        fill="#F6C360" />
</svg>